<?xml version="1.0" encoding="UTF-8" standalone="no"?>
<!-- Created with Inkscape (http://www.inkscape.org/) -->

<svg
   version="1.1"
   id="svg1"
   width="64"
   height="64"
   viewBox="0 0 64 64"
   sodipodi:docname="search_icon.svg"
   inkscape:version="1.4 (86a8ad7, 2024-10-11)"
   xmlns:inkscape="http://www.inkscape.org/namespaces/inkscape"
   xmlns:sodipodi="http://sodipodi.sourceforge.net/DTD/sodipodi-0.dtd"
   xmlns="http://www.w3.org/2000/svg"
   xmlns:svg="http://www.w3.org/2000/svg">
  <defs
     id="defs1" />
  <sodipodi:namedview
     id="namedview1"
     pagecolor="#ffffff"
     bordercolor="#000000"
     borderopacity="0.25"
     inkscape:showpageshadow="2"
     inkscape:pageopacity="0.0"
     inkscape:pagecheckerboard="0"
     inkscape:deskcolor="#d1d1d1"
     inkscape:zoom="12.078125"
     inkscape:cx="48.72445"
     inkscape:cy="32"
     inkscape:window-width="1920"
     inkscape:window-height="991"
     inkscape:window-x="3831"
     inkscape:window-y="-9"
     inkscape:window-maximized="1"
     inkscape:current-layer="g1" />
  <g
     inkscape:groupmode="layer"
     inkscape:label="Image"
     id="g1">
    <g
       id="g8"
       transform="translate(-0.24838315,-0.08279431)">
      <path
         style="fill:#f3f3f3"
         d="m 54.125,44.827806 c 0,-0.02596 0.09844,-0.124395 0.21875,-0.21875 0.198257,-0.155484 0.202678,-0.151063 0.04719,0.04719 -0.09436,0.120312 -0.192793,0.21875 -0.21875,0.21875 -0.02596,0 -0.04719,-0.02124 -0.04719,-0.04719 z m -3.875,-4.125 c 0,-0.02596 0.09844,-0.124395 0.21875,-0.21875 0.198257,-0.155484 0.202678,-0.151063 0.04719,0.04719 -0.09436,0.120312 -0.192793,0.21875 -0.21875,0.21875 -0.02596,0 -0.04719,-0.02124 -0.04719,-0.04719 z m 0.75,-0.75 c 0,-0.02596 0.09844,-0.124395 0.21875,-0.21875 0.198257,-0.155484 0.202678,-0.151063 0.04719,0.04719 C 51.171589,39.901562 51.073151,40 51.047194,40 51.021237,40 51,39.978763 51,39.952806 Z m -2.25,-0.75 c 0,-0.02596 0.09844,-0.124395 0.21875,-0.21875 0.198257,-0.155484 0.202678,-0.151063 0.04719,0.04719 -0.09436,0.120312 -0.192793,0.21875 -0.21875,0.21875 -0.02596,0 -0.04719,-0.02124 -0.04719,-0.04719 z M 37.226562,36.539611 c 0.09023,-0.03611 0.198047,-0.03167 0.239584,0.0099 0.04154,0.04154 -0.03229,0.07108 -0.164063,0.06565 -0.145618,-0.006 -0.175237,-0.03562 -0.07552,-0.07552 z M 23.375,13.577806 c 0,-0.02596 0.09844,-0.124395 0.21875,-0.21875 0.198257,-0.155484 0.202678,-0.151063 0.04719,0.04719 -0.09436,0.120313 -0.192793,0.21875 -0.21875,0.21875 -0.02596,0 -0.04719,-0.02124 -0.04719,-0.04719 z m 0.5,-0.5 c 0,-0.02596 0.09844,-0.124395 0.21875,-0.21875 0.198257,-0.155484 0.202678,-0.151063 0.04719,0.04719 -0.09436,0.120313 -0.192793,0.21875 -0.21875,0.21875 -0.02596,0 -0.04719,-0.02124 -0.04719,-0.04719 z M 20.9375,11 c 0.124436,-0.1375 0.254372,-0.25 0.288747,-0.25 0.03438,0 -0.03931,0.1125 -0.163747,0.25 -0.124436,0.1375 -0.254372,0.25 -0.288747,0.25 -0.03438,0 0.03931,-0.1125 0.163747,-0.25 z m 0.4375,-0.422194 c 0,-0.02596 0.09844,-0.124395 0.21875,-0.21875 0.198257,-0.155484 0.202678,-0.151063 0.04719,0.04719 -0.09436,0.120313 -0.192793,0.21875 -0.21875,0.21875 -0.02596,0 -0.04719,-0.02124 -0.04719,-0.04719 z M 19.25,9.7028056 c 0,-0.025957 0.09844,-0.1243944 0.21875,-0.21875 C 19.667007,9.3285718 19.671428,9.332993 19.515944,9.53125 19.421589,9.6515625 19.323151,9.75 19.297194,9.75 19.271237,9.75 19.25,9.7287625 19.25,9.7028056 Z m 0.75,-0.75 c 0,-0.025957 0.09844,-0.1243944 0.21875,-0.21875 C 20.417007,8.5785718 20.421428,8.582993 20.265944,8.78125 20.171589,8.9015625 20.073151,9 20.047194,9 20.021237,9 20,8.9787625 20,8.9528056 Z"
         id="path25" />
      <path
         style="fill:#e7e7e7"
         d="m 20.359056,44.78125 c -0.155484,-0.198257 -0.151063,-0.202678 0.04719,-0.04719 0.120312,0.09436 0.21875,0.192793 0.21875,0.21875 0,0.02596 -0.02124,0.04719 -0.04719,0.04719 -0.02596,0 -0.124395,-0.09844 -0.21875,-0.21875 z M 54.75,44.1875 c 0.161468,-0.171875 0.321704,-0.3125 0.356079,-0.3125 0.03437,0 -0.06961,0.140625 -0.231079,0.3125 -0.161468,0.171875 -0.321704,0.3125 -0.356079,0.3125 -0.03437,0 0.06961,-0.140625 0.231079,-0.3125 z M 19.109056,43.53125 c -0.155484,-0.198257 -0.151063,-0.202678 0.04719,-0.04719 0.120312,0.09436 0.21875,0.192793 0.21875,0.21875 0,0.02596 -0.02124,0.04719 -0.04719,0.04719 -0.02596,0 -0.124395,-0.09844 -0.21875,-0.21875 z m 5.125,-2.875 c -0.155484,-0.198257 -0.151063,-0.202678 0.04719,-0.04719 0.120312,0.09436 0.21875,0.192793 0.21875,0.21875 0,0.02596 -0.02124,0.04719 -0.04719,0.04719 -0.02596,0 -0.124395,-0.09844 -0.21875,-0.21875 z M 50.625,40.327806 c 0,-0.02596 0.09844,-0.124395 0.21875,-0.21875 0.198257,-0.155484 0.202678,-0.151063 0.04719,0.04719 -0.09436,0.120312 -0.192793,0.21875 -0.21875,0.21875 -0.02596,0 -0.04719,-0.02124 -0.04719,-0.04719 z m 1.375,-9.875 c 0,-0.02596 0.09844,-0.124395 0.21875,-0.21875 0.198257,-0.155484 0.202678,-0.151063 0.04719,0.04719 C 52.171589,30.401562 52.073151,30.5 52.047194,30.5 52.021237,30.5 52,30.478763 52,30.452806 Z m 7.884868,-4.275723 c 0.006,-0.145618 0.03562,-0.175237 0.07552,-0.07552 0.03611,0.09023 0.03167,0.198047 -0.0099,0.239584 -0.04154,0.04154 -0.07108,-0.03229 -0.06565,-0.164063 z m -47.375,-0.125 c 0.006,-0.145618 0.03562,-0.175237 0.07552,-0.07552 0.03611,0.09023 0.03167,0.198047 -0.0099,0.239584 -0.04154,0.04154 -0.07108,-0.03229 -0.06565,-0.164063 z M 24.625,15.327806 c 0,-0.02596 0.09844,-0.124395 0.21875,-0.21875 0.198257,-0.155484 0.202678,-0.151063 0.04719,0.04719 -0.09436,0.120313 -0.192793,0.21875 -0.21875,0.21875 -0.02596,0 -0.04719,-0.02124 -0.04719,-0.04719 z M 49.300623,14.71875 49.0625,14.4375 l 0.28125,0.238123 c 0.154688,0.130968 0.28125,0.257531 0.28125,0.28125 0,0.02372 -0.01941,0.04313 -0.04313,0.04313 -0.02372,0 -0.150282,-0.126562 -0.28125,-0.28125 z M 25.625,14.327806 c 0,-0.02596 0.09844,-0.124395 0.21875,-0.21875 0.198257,-0.155484 0.202678,-0.151063 0.04719,0.04719 -0.09436,0.120313 -0.192793,0.21875 -0.21875,0.21875 -0.02596,0 -0.04719,-0.02124 -0.04719,-0.04719 z M 53.240539,10.65625 52.9375,10.3125 l 0.34375,0.303039 c 0.189062,0.166672 0.34375,0.321359 0.34375,0.34375 0,0.02239 -0.01832,0.04071 -0.04071,0.04071 -0.02239,0 -0.177078,-0.154687 -0.34375,-0.34375 z M 21.75,10.202806 c 0,-0.02596 0.09844,-0.124395 0.21875,-0.2187504 C 22.167007,9.8285718 22.171428,9.832993 22.01594,10.03125 21.92158,10.151563 21.823147,10.25 21.79719,10.25 21.77123,10.25 21.75,10.22876 21.75,10.20281 Z M 19.625,9.3278056 c 0,-0.025957 0.09844,-0.1243944 0.21875,-0.21875 0.198257,-0.1554838 0.202678,-0.1510626 0.04719,0.047194 -0.09436,0.1203125 -0.192793,0.21875 -0.21875,0.21875 -0.02596,0 -0.04719,-0.021237 -0.04719,-0.047194 z"
         id="path24" />
      <path
         style="fill:#d7d7d7"
         d="m 17.75,52.9375 c 3.127558,-3.128125 5.714595,-5.6875 5.74897,-5.6875 0.03438,0 -2.496412,2.559375 -5.62397,5.6875 -3.127558,3.128125 -5.714595,5.6875 -5.74897,5.6875 -0.03438,0 2.496412,-2.559375 5.62397,-5.6875 z M 11,46.1875 C 14.127558,43.059375 16.714595,40.5 16.74897,40.5 16.78335,40.5 14.252558,43.059375 11.125,46.1875 7.9974416,49.315625 5.4104053,51.875 5.3760303,51.875 5.3416553,51.875 7.8724416,49.315625 11,46.1875 Z m 25.601562,5.227111 c 0.09023,-0.03611 0.198047,-0.03167 0.239584,0.0099 0.04154,0.04154 -0.03229,0.07108 -0.164063,0.06565 -0.145618,-0.006 -0.175237,-0.03562 -0.07552,-0.07552 z m 0.557067,-7.751235 c 0.121621,-0.03169 0.290371,-0.02961 0.375,0.0046 0.08463,0.03424 -0.01488,0.06017 -0.221129,0.05762 -0.20625,-0.0025 -0.275492,-0.03056 -0.153871,-0.06226 z M 12.519737,27.25 c 0,-0.171875 0.02837,-0.242188 0.06305,-0.15625 0.03468,0.08594 0.03468,0.226562 0,0.3125 -0.03468,0.08594 -0.06305,0.01563 -0.06305,-0.15625 z m 7.754632,-0.5625 c 0.0025,-0.20625 0.03056,-0.275492 0.06226,-0.153871 0.03169,0.121621 0.02961,0.290371 -0.0046,0.375 -0.03424,0.08463 -0.06017,-0.01488 -0.05762,-0.221129 z M 30.8125,21.5 c 0.124436,-0.1375 0.254372,-0.25 0.288747,-0.25 0.03438,0 -0.03931,0.1125 -0.163747,0.25 -0.124436,0.1375 -0.254372,0.25 -0.288747,0.25 -0.03438,0 0.03931,-0.1125 0.163747,-0.25 z M 53.734056,11.15625 c -0.155484,-0.198257 -0.151063,-0.202678 0.04719,-0.04719 0.120312,0.09435 0.21875,0.192793 0.21875,0.21875 0,0.02596 -0.02124,0.04719 -0.04719,0.04719 -0.02596,0 -0.124395,-0.09844 -0.21875,-0.21875 z M 36.976562,4.0396107 c 0.09023,-0.036109 0.198047,-0.031668 0.239584,0.00987 0.04154,0.041536 -0.03229,0.07108 -0.164063,0.065652 -0.145618,-0.006 -0.175237,-0.035618 -0.07552,-0.075521 z m 0.5,0 c 0.09023,-0.036109 0.198047,-0.031668 0.239584,0.00987 0.04154,0.041536 -0.03229,0.07108 -0.164063,0.065652 -0.145618,-0.006 -0.175237,-0.035618 -0.07552,-0.075521 z"
         id="path23" />
      <path
         style="fill:#c7c7c7"
         d="m 37.03125,51.413834 c 0.120312,-0.03144 0.317188,-0.03144 0.4375,0 0.120312,0.03144 0.02188,0.05717 -0.21875,0.05717 -0.240625,0 -0.339062,-0.02572 -0.21875,-0.05717 z M 19.734056,44.15625 c -0.155484,-0.198257 -0.151063,-0.202678 0.04719,-0.04719 0.120312,0.09436 0.21875,0.192793 0.21875,0.21875 0,0.02596 -0.02124,0.04719 -0.04719,0.04719 -0.02596,0 -0.124395,-0.09844 -0.21875,-0.21875 z m 16.992506,-0.491639 c 0.09023,-0.03611 0.198047,-0.03167 0.239584,0.0099 0.04154,0.04154 -0.03229,0.07108 -0.164063,0.06565 -0.145618,-0.006 -0.175237,-0.03562 -0.07552,-0.07552 z m -1,-15.5 c 0.09023,-0.03611 0.198047,-0.03167 0.239584,0.0099 0.04154,0.04154 -0.03229,0.07108 -0.164063,0.06565 -0.145618,-0.006 -0.175237,-0.03562 -0.07552,-0.07552 z M 20.259868,27.177083 c 0.006,-0.145618 0.03562,-0.175237 0.07552,-0.07552 0.03611,0.09023 0.03167,0.198047 -0.0099,0.239584 -0.04154,0.04154 -0.07108,-0.03229 -0.06565,-0.164063 z M 12.519737,26.75 c 0,-0.171875 0.02837,-0.242188 0.06305,-0.15625 0.03468,0.08594 0.03468,0.226562 0,0.3125 -0.03468,0.08594 -0.06305,0.01563 -0.06305,-0.15625 z m 24.638892,-7.836624 c 0.121621,-0.03169 0.290371,-0.02961 0.375,0.0046 0.08463,0.03424 -0.01488,0.06017 -0.221129,0.05762 -0.20625,-0.0025 -0.275492,-0.03056 -0.153871,-0.06226 z M 36.601562,4.0396107 c 0.09023,-0.036109 0.198047,-0.031668 0.239584,0.00987 0.04154,0.041536 -0.03229,0.07108 -0.164063,0.065652 -0.145618,-0.006 -0.175237,-0.035618 -0.07552,-0.075521 z m 1.25,0 c 0.09023,-0.036109 0.198047,-0.031668 0.239584,0.00987 0.04154,0.041536 -0.03229,0.07108 -0.164063,0.065652 -0.145618,-0.006 -0.175237,-0.035618 -0.07552,-0.075521 z"
         id="path22" />
      <path
         style="fill:#b7b7b7"
         d="m 36.101562,28.164611 c 0.09023,-0.03611 0.198047,-0.03167 0.239584,0.0099 0.04154,0.04154 -0.03229,0.07108 -0.164063,0.06565 -0.145618,-0.006 -0.175237,-0.03562 -0.07552,-0.07552 z m 2.25,0 c 0.09023,-0.03611 0.198047,-0.03167 0.239584,0.0099 0.04154,0.04154 -0.03229,0.07108 -0.164063,0.06565 -0.145618,-0.006 -0.175237,-0.03562 -0.07552,-0.07552 z m 5.257494,-6.758361 c -0.155484,-0.198257 -0.151063,-0.202678 0.04719,-0.04719 0.120312,0.09436 0.21875,0.192793 0.21875,0.21875 0,0.02596 -0.02124,0.04719 -0.04719,0.04719 -0.02596,0 -0.124395,-0.09844 -0.21875,-0.21875 z M 36.226562,4.0396107 c 0.09023,-0.036109 0.198047,-0.031668 0.239584,0.00987 0.04154,0.041536 -0.03229,0.07108 -0.164063,0.065652 -0.145618,-0.006 -0.175237,-0.035618 -0.07552,-0.075521 z"
         id="path21" />
      <path
         style="fill:#a7a7a7"
         d="m 45,33.452806 c 0,-0.02596 0.09844,-0.124395 0.21875,-0.21875 0.198257,-0.155484 0.202678,-0.151063 0.04719,0.04719 C 45.171589,33.401562 45.073151,33.5 45.047194,33.5 45.021237,33.5 45,33.478763 45,33.452806 Z m -8.523438,-5.288195 c 0.09023,-0.03611 0.198047,-0.03167 0.239584,0.0099 0.04154,0.04154 -0.03229,0.07108 -0.164063,0.06565 -0.145618,-0.006 -0.175237,-0.03562 -0.07552,-0.07552 z m 1.367188,0.0026 c 0.08594,-0.03468 0.226562,-0.03468 0.3125,0 0.08594,0.03468 0.01563,0.06305 -0.15625,0.06305 -0.171875,0 -0.242188,-0.02837 -0.15625,-0.06305 z m 16.416118,-1.490132 c 0.006,-0.145618 0.03562,-0.175237 0.07552,-0.07552 0.03611,0.09023 0.03167,0.198047 -0.0099,0.239584 -0.04154,0.04154 -0.07108,-0.03229 -0.06565,-0.164063 z M 45.109056,20.03125 c -0.155484,-0.198257 -0.151063,-0.202678 0.04719,-0.04719 0.120312,0.09436 0.21875,0.192793 0.21875,0.21875 0,0.02596 -0.02124,0.04719 -0.04719,0.04719 -0.02596,0 -0.124395,-0.09844 -0.21875,-0.21875 z"
         id="path20" />
      <path
         style="fill:#969696"
         d="m 36.595207,31.786592 c 0.155489,-0.0299 0.380489,-0.02876 0.5,0.0025 0.119511,0.03129 -0.0077,0.05575 -0.282707,0.05436 -0.275,-0.0014 -0.372782,-0.02698 -0.217293,-0.05689 z m 1,0 c 0.155489,-0.0299 0.380489,-0.02876 0.5,0.0025 0.119511,0.03129 -0.0077,0.05575 -0.282707,0.05436 -0.275,-0.0014 -0.372782,-0.02698 -0.217293,-0.05689 z M 36.84375,28.167215 c 0.08594,-0.03468 0.226562,-0.03468 0.3125,0 0.08594,0.03468 0.01563,0.06305 -0.15625,0.06305 -0.171875,0 -0.242188,-0.02837 -0.15625,-0.06305 z m 0.632812,-0.0026 c 0.09023,-0.03611 0.198047,-0.03167 0.239584,0.0099 0.04154,0.04154 -0.03229,0.07108 -0.164063,0.06565 -0.145618,-0.006 -0.175237,-0.03562 -0.07552,-0.07552 z m 16.783306,-1.112528 c 0.006,-0.145618 0.03562,-0.175237 0.07552,-0.07552 0.03611,0.09023 0.03167,0.198047 -0.0099,0.239584 -0.04154,0.04154 -0.07108,-0.03229 -0.06565,-0.164063 z m 0,-0.75 c 0.006,-0.145618 0.03562,-0.175237 0.07552,-0.07552 0.03611,0.09023 0.03167,0.198047 -0.0099,0.239584 -0.04154,0.04154 -0.07108,-0.03229 -0.06565,-0.164063 z M 36.976562,9.6646107 c 0.09023,-0.036109 0.198047,-0.031668 0.239584,0.00987 0.04154,0.041536 -0.03229,0.07108 -0.164063,0.065652 -0.145618,-0.006 -0.175237,-0.035618 -0.07552,-0.075521 z m 0.5,0 c 0.09023,-0.036109 0.198047,-0.031668 0.239584,0.00987 0.04154,0.041536 -0.03229,0.07108 -0.164063,0.065652 -0.145618,-0.006 -0.175237,-0.035618 -0.07552,-0.075521 z"
         id="path19" />
      <path
         style="fill:#878787"
         d="m 36.601562,9.6646107 c 0.09023,-0.036109 0.198047,-0.031668 0.239584,0.00987 0.04154,0.041536 -0.03229,0.07108 -0.164063,0.065652 -0.145618,-0.006 -0.175237,-0.035618 -0.07552,-0.075521 z m 1.25,0 c 0.09023,-0.036109 0.198047,-0.031668 0.239584,0.00987 0.04154,0.041536 -0.03229,0.07108 -0.164063,0.065652 -0.145618,-0.006 -0.175237,-0.035618 -0.07552,-0.075521 z"
         id="path18" />
      <path
         style="fill:#777777"
         d="m 19.375,54.1875 c 3.196321,-3.196875 5.839617,-5.8125 5.873992,-5.8125 0.03437,0 -2.552671,2.615625 -5.748992,5.8125 C 16.303679,57.384375 13.660383,60 13.626008,60 13.591633,60 16.178679,57.384375 19.375,54.1875 Z m 9.984056,-20.90625 c -0.155484,-0.198257 -0.151063,-0.202678 0.04719,-0.04719 0.120312,0.09436 0.21875,0.192793 0.21875,0.21875 0,0.02596 -0.02124,0.04719 -0.04719,0.04719 -0.02596,0 -0.124395,-0.09844 -0.21875,-0.21875 z m 26.900812,-7.229167 c 0.006,-0.145618 0.03562,-0.175237 0.07552,-0.07552 0.03611,0.09023 0.03167,0.198047 -0.0099,0.239584 -0.04154,0.04154 -0.07108,-0.03229 -0.06565,-0.164063 z M 36.601562,7.6646107 c 0.09023,-0.036109 0.198047,-0.031668 0.239584,0.00987 0.04154,0.041536 -0.03229,0.07108 -0.164063,0.065652 -0.145618,-0.006 -0.175237,-0.035618 -0.07552,-0.075521 z m 1.25,0 c 0.09023,-0.036109 0.198047,-0.031668 0.239584,0.00987 0.04154,0.041536 -0.03229,0.07108 -0.164063,0.065652 -0.145618,-0.006 -0.175237,-0.035618 -0.07552,-0.075521 z"
         id="path17" />
      <path
         style="fill:#696969"
         d="m 9.75,44.5625 c 3.196321,-3.196875 5.839617,-5.8125 5.873992,-5.8125 0.03438,0 -2.552671,2.615625 -5.748992,5.8125 C 6.6786795,47.759375 4.0353831,50.375 4.0010081,50.375 3.9666331,50.375 6.5536795,47.759375 9.75,44.5625 Z M 35.601562,31.789611 c 0.09023,-0.03611 0.198047,-0.03167 0.239584,0.0099 0.04154,0.04154 -0.03229,0.07108 -0.164063,0.06565 -0.145618,-0.006 -0.175237,-0.03562 -0.07552,-0.07552 z m 20.658306,-4.737528 c 0.006,-0.145618 0.03562,-0.175237 0.07552,-0.07552 0.03611,0.09023 0.03167,0.198047 -0.0099,0.239584 -0.04154,0.04154 -0.07108,-0.03229 -0.06565,-0.164063 z M 37.095207,26.161592 c 0.155489,-0.0299 0.380489,-0.02876 0.5,0.0025 0.119511,0.03129 -0.0077,0.05575 -0.282707,0.05436 -0.275,-0.0014 -0.372782,-0.02698 -0.217293,-0.05689 z M 36.976562,7.6646107 c 0.09023,-0.036109 0.198047,-0.031668 0.239584,0.00987 0.04154,0.041536 -0.03229,0.07108 -0.164063,0.065652 -0.145618,-0.006 -0.175237,-0.035618 -0.07552,-0.075521 z m 0.5,0 c 0.09023,-0.036109 0.198047,-0.031668 0.239584,0.00987 0.04154,0.041536 -0.03229,0.07108 -0.164063,0.065652 -0.145618,-0.006 -0.175237,-0.035618 -0.07552,-0.075521 z"
         id="path16" />
      <path
         style="fill:#575757"
         d="m 53.125,42.952806 c 0,-0.02596 0.09844,-0.124395 0.21875,-0.21875 0.198257,-0.155484 0.202678,-0.151063 0.04719,0.04719 C 53.296589,42.901562 53.198151,43 53.172194,43 53.146237,43 53.125,42.978763 53.125,42.952806 Z M 36.40625,33.788834 c 0.120312,-0.03144 0.317188,-0.03144 0.4375,0 0.120312,0.03144 0.02188,0.05717 -0.21875,0.05717 -0.240625,0 -0.339062,-0.02572 -0.21875,-0.05717 z m 1.375,0 c 0.120312,-0.03144 0.317188,-0.03144 0.4375,0 0.120312,0.03144 0.02188,0.05717 -0.21875,0.05717 -0.240625,0 -0.339062,-0.02572 -0.21875,-0.05717 z m 18.478618,-7.111751 c 0.006,-0.145618 0.03562,-0.175237 0.07552,-0.07552 0.03611,0.09023 0.03167,0.198047 -0.0099,0.239584 -0.04154,0.04154 -0.07108,-0.03229 -0.06565,-0.164063 z M 36.46875,26.167215 c 0.08594,-0.03468 0.226562,-0.03468 0.3125,0 0.08594,0.03468 0.01563,0.06305 -0.15625,0.06305 -0.171875,0 -0.242188,-0.02837 -0.15625,-0.06305 z m 1.375,0 c 0.08594,-0.03468 0.226562,-0.03468 0.3125,0 0.08594,0.03468 0.01563,0.06305 -0.15625,0.06305 -0.171875,0 -0.242188,-0.02837 -0.15625,-0.06305 z M 50.675623,13.21875 50.4375,12.9375 50.71875,13.175623 C 50.873438,13.306591 51,13.433154 51,13.456873 51,13.480593 50.980593,13.5 50.956873,13.5 c -0.02372,0 -0.150282,-0.126562 -0.28125,-0.28125 z"
         id="path15" />
      <path
         style="fill:#474747"
         d="m 36.476562,45.664611 c 0.09023,-0.03611 0.198047,-0.03167 0.239584,0.0099 0.04154,0.04154 -0.03229,0.07108 -0.164063,0.06565 -0.145618,-0.006 -0.175237,-0.03562 -0.07552,-0.07552 z m 1.5,0 c 0.09023,-0.03611 0.198047,-0.03167 0.239584,0.0099 0.04154,0.04154 -0.03229,0.07108 -0.164063,0.06565 -0.145618,-0.006 -0.175237,-0.03562 -0.07552,-0.07552 z M 37.158629,33.788376 c 0.121621,-0.03169 0.290371,-0.02961 0.375,0.0046 0.08463,0.03424 -0.01488,0.06017 -0.221129,0.05762 -0.20625,-0.0025 -0.275492,-0.03056 -0.153871,-0.06226 z M 18.259868,27.427083 c 0.006,-0.145618 0.03562,-0.175237 0.07552,-0.07552 0.03611,0.09023 0.03167,0.198047 -0.0099,0.239584 -0.04154,0.04154 -0.07108,-0.03229 -0.06565,-0.164063 z m 17.841694,-1.262472 c 0.09023,-0.03611 0.198047,-0.03167 0.239584,0.0099 0.04154,0.04154 -0.03229,0.07108 -0.164063,0.06565 -0.145618,-0.006 -0.175237,-0.03562 -0.07552,-0.07552 z m 2.25,0 c 0.09023,-0.03611 0.198047,-0.03167 0.239584,0.0099 0.04154,0.04154 -0.03229,0.07108 -0.164063,0.06565 -0.145618,-0.006 -0.175237,-0.03562 -0.07552,-0.07552 z M 18.259868,25.927083 c 0.006,-0.145618 0.03562,-0.175237 0.07552,-0.07552 0.03611,0.09023 0.03167,0.198047 -0.0099,0.239584 -0.04154,0.04154 -0.07108,-0.03229 -0.06565,-0.164063 z M 25,14.827806 c 0,-0.02596 0.09844,-0.124395 0.21875,-0.21875 0.198257,-0.155484 0.202678,-0.151063 0.04719,0.04719 -0.09436,0.120313 -0.192793,0.21875 -0.21875,0.21875 C 25.021237,14.875 25,14.853763 25,14.827806 Z M 36.226562,2.0396107 c 0.09023,-0.036109 0.198047,-0.031668 0.239584,0.00987 0.04154,0.041536 -0.03229,0.07108 -0.164063,0.065652 -0.145618,-0.006 -0.175237,-0.035618 -0.07552,-0.075521 z"
         id="path14" />
      <path
         style="fill:#373737"
         d="m 37.158629,49.413376 c 0.121621,-0.03169 0.290371,-0.02961 0.375,0.0046 0.08463,0.03424 -0.01488,0.06017 -0.221129,0.05762 -0.20625,-0.0025 -0.275492,-0.03056 -0.153871,-0.06226 z m -0.307067,-3.748765 c 0.09023,-0.03611 0.198047,-0.03167 0.239584,0.0099 0.04154,0.04154 -0.03229,0.07108 -0.164063,0.06565 -0.145618,-0.006 -0.175237,-0.03562 -0.07552,-0.07552 z m 0.75,0 c 0.09023,-0.03611 0.198047,-0.03167 0.239584,0.0099 0.04154,0.04154 -0.03229,0.07108 -0.164063,0.06565 -0.145618,-0.006 -0.175237,-0.03562 -0.07552,-0.07552 z M 61.884868,27.802083 c 0.006,-0.145618 0.03562,-0.175237 0.07552,-0.07552 0.03611,0.09023 0.03167,0.198047 -0.0099,0.239584 -0.04154,0.04154 -0.07108,-0.03229 -0.06565,-0.164063 z m -43.625,-0.75 c 0.006,-0.145618 0.03562,-0.175237 0.07552,-0.07552 0.03611,0.09023 0.03167,0.198047 -0.0099,0.239584 -0.04154,0.04154 -0.07108,-0.03229 -0.06565,-0.164063 z m -3.75,-0.375 c 0.006,-0.145618 0.03562,-0.175237 0.07552,-0.07552 0.03611,0.09023 0.03167,0.198047 -0.0099,0.239584 -0.04154,0.04154 -0.07108,-0.03229 -0.06565,-0.164063 z m 3.75,-0.375 c 0.006,-0.145618 0.03562,-0.175237 0.07552,-0.07552 0.03611,0.09023 0.03167,0.198047 -0.0099,0.239584 -0.04154,0.04154 -0.07108,-0.03229 -0.06565,-0.164063 z m 18.898761,-9.388707 c 0.121621,-0.03169 0.290371,-0.02961 0.375,0.0046 0.08463,0.03424 -0.01488,0.06017 -0.221129,0.05762 -0.20625,-0.0025 -0.275492,-0.03056 -0.153871,-0.06226 z M 23.8125,13.25 C 23.936936,13.1125 24.066872,13 24.101247,13 c 0.03438,0 -0.03931,0.1125 -0.163747,0.25 -0.124436,0.1375 -0.254372,0.25 -0.288747,0.25 -0.03438,0 0.03931,-0.1125 0.163747,-0.25 z M 36.601562,2.0396107 c 0.09023,-0.036109 0.198047,-0.031668 0.239584,0.00987 0.04154,0.041536 -0.03229,0.07108 -0.164063,0.065652 -0.145618,-0.006 -0.175237,-0.035618 -0.07552,-0.075521 z m 1.25,0 c 0.09023,-0.036109 0.198047,-0.031668 0.239584,0.00987 0.04154,0.041536 -0.03229,0.07108 -0.164063,0.065652 -0.145618,-0.006 -0.175237,-0.035618 -0.07552,-0.075521 z"
         id="path13" />
      <path
         style="fill:#272727"
         d="m 36.726562,49.414611 c 0.09023,-0.03611 0.198047,-0.03167 0.239584,0.0099 0.04154,0.04154 -0.03229,0.07108 -0.164063,0.06565 -0.145618,-0.006 -0.175237,-0.03562 -0.07552,-0.07552 z m 0.5,-3.75 c 0.09023,-0.03611 0.198047,-0.03167 0.239584,0.0099 0.04154,0.04154 -0.03229,0.07108 -0.164063,0.06565 -0.145618,-0.006 -0.175237,-0.03562 -0.07552,-0.07552 z M 20.359056,44.65625 c -0.155484,-0.198257 -0.151063,-0.202678 0.04719,-0.04719 0.120312,0.09436 0.21875,0.192793 0.21875,0.21875 0,0.02596 -0.02124,0.04719 -0.04719,0.04719 -0.02596,0 -0.124395,-0.09844 -0.21875,-0.21875 z M 54.6875,44.125 c 0.124436,-0.1375 0.254372,-0.25 0.288747,-0.25 0.03437,0 -0.03931,0.1125 -0.163747,0.25 -0.124436,0.1375 -0.254372,0.25 -0.288747,0.25 -0.03437,0 0.03931,-0.1125 0.163747,-0.25 z M 18.259868,26.677083 c 0.006,-0.145618 0.03562,-0.175237 0.07552,-0.07552 0.03611,0.09023 0.03167,0.198047 -0.0099,0.239584 -0.04154,0.04154 -0.07108,-0.03229 -0.06565,-0.164063 z M 49.300623,14.59375 49.0625,14.3125 l 0.28125,0.238123 c 0.154688,0.130968 0.28125,0.257531 0.28125,0.28125 0,0.02372 -0.01941,0.04313 -0.04313,0.04313 -0.02372,0 -0.150282,-0.126562 -0.28125,-0.28125 z M 20.375,11.452806 c 0,-0.02596 0.09844,-0.124395 0.21875,-0.21875 0.198257,-0.155484 0.202678,-0.151063 0.04719,0.04719 -0.09436,0.120313 -0.192793,0.21875 -0.21875,0.21875 -0.02596,0 -0.04719,-0.02124 -0.04719,-0.04719 z M 53.304636,10.59375 52.9375,10.1875 l 0.40625,0.367136 c 0.223438,0.201925 0.40625,0.384738 0.40625,0.40625 0,0.02151 -0.0176,0.03911 -0.03911,0.03911 -0.02151,0 -0.204325,-0.182813 -0.40625,-0.40625 z M 36.976562,2.0396107 c 0.09023,-0.036109 0.198047,-0.031668 0.239584,0.00987 0.04154,0.041536 -0.03229,0.07108 -0.164063,0.065652 -0.145618,-0.006 -0.175237,-0.035618 -0.07552,-0.075521 z m 0.5,0 c 0.09023,-0.036109 0.198047,-0.031668 0.239584,0.00987 0.04154,0.041536 -0.03229,0.07108 -0.164063,0.065652 -0.145618,-0.006 -0.175237,-0.035618 -0.07552,-0.075521 z"
         id="path12" />
      <path
         style="fill:#1a1a1a"
         d="m 13.5,57.335886 c 0,-0.02151 0.182813,-0.204325 0.40625,-0.40625 L 14.3125,56.5625 13.945364,56.96875 c -0.201925,0.223438 -0.384738,0.40625 -0.40625,0.40625 -0.02151,0 -0.03911,-0.0176 -0.03911,-0.03911 z m 1.75,-1.75808 c 0,-0.02596 0.09844,-0.124395 0.21875,-0.21875 0.198257,-0.155484 0.202678,-0.151063 0.04719,0.04719 -0.09435,0.120312 -0.192793,0.21875 -0.21875,0.21875 -0.02596,0 -0.04719,-0.02124 -0.04719,-0.04719 z m 0.5,-0.5 c 0,-0.02596 0.09844,-0.124395 0.21875,-0.21875 0.198257,-0.155484 0.202678,-0.151063 0.04719,0.04719 -0.09436,0.120312 -0.192793,0.21875 -0.21875,0.21875 -0.02596,0 -0.04719,-0.02124 -0.04719,-0.04719 z m 1.375,-1.36692 c 0,-0.02151 0.182812,-0.204325 0.40625,-0.40625 L 17.9375,52.9375 17.570364,53.34375 c -0.201925,0.223438 -0.384738,0.40625 -0.40625,0.40625 -0.02151,0 -0.03911,-0.0176 -0.03911,-0.03911 z M 11,46.0625 c 3.127558,-3.128125 5.714595,-5.6875 5.74897,-5.6875 0.03438,0 -2.496412,2.559375 -5.62397,5.6875 C 7.9974416,49.190625 5.4104053,51.75 5.3760303,51.75 5.3416553,51.75 7.8724416,49.190625 11,46.0625 Z M 30.625,21.577806 c 0,-0.02596 0.09844,-0.124395 0.21875,-0.21875 0.198257,-0.155484 0.202678,-0.151063 0.04719,0.04719 -0.09436,0.120312 -0.192793,0.21875 -0.21875,0.21875 -0.02596,0 -0.04719,-0.02124 -0.04719,-0.04719 z"
         id="path11" />
      <path
         style="fill:#141414"
         d="m 20,50.8125 c 0.373428,-0.378125 0.707085,-0.6875 0.74146,-0.6875 0.03438,0 -0.243032,0.309375 -0.61646,0.6875 C 19.751572,51.190625 19.417915,51.5 19.38354,51.5 19.349165,51.5 19.626572,51.190625 20,50.8125 Z m 1.5,-1.5 c 0.233223,-0.240625 0.452167,-0.4375 0.486542,-0.4375 0.03438,0 -0.128319,0.196875 -0.361542,0.4375 -0.233223,0.240625 -0.452167,0.4375 -0.486542,0.4375 -0.03438,0 0.128319,-0.196875 0.361542,-0.4375 z M 22.3125,48.5 c 0.124436,-0.1375 0.254372,-0.25 0.288747,-0.25 0.03438,0 -0.03931,0.1125 -0.163747,0.25 -0.124436,0.1375 -0.254372,0.25 -0.288747,0.25 -0.03438,0 0.03931,-0.1125 0.163747,-0.25 z m 0.171556,-18.21875 c -0.155484,-0.198257 -0.151063,-0.202678 0.04719,-0.04719 0.120312,0.09436 0.21875,0.192793 0.21875,0.21875 0,0.02596 -0.02124,0.04719 -0.04719,0.04719 -0.02596,0 -0.124395,-0.09844 -0.21875,-0.21875 z"
         id="path10" />
      <path
         style="fill:#0b0b0b"
         d="m 45.359056,20.40625 c -0.155484,-0.198257 -0.151063,-0.202678 0.04719,-0.04719 0.120312,0.09436 0.21875,0.192793 0.21875,0.21875 0,0.02596 -0.02124,0.04719 -0.04719,0.04719 -0.02596,0 -0.124395,-0.09844 -0.21875,-0.21875 z"
         id="path9" />
      <path
         style="fill:#000000"
         d="M 8,61.856626 C 7.553125,61.810906 6.8648759,61.651974 6.4705575,61.503444 6.0762391,61.354915 5.4137648,61.006447 4.9983924,60.729072 4.5830201,60.451697 3.9871752,59.910493 3.6742927,59.526397 3.3614102,59.142301 2.9754702,58.571419 2.8166482,58.25777 2.6578262,57.944122 2.4353523,57.378125 2.3222619,57 2.1975935,56.583163 2.1166429,55.869596 2.1166429,55.1875 c 0,-0.674815 0.081474,-1.400113 0.2036009,-1.8125 C 2.4322244,52.996875 2.6983113,52.35 2.9115481,51.9375 3.232413,51.316797 4.3726456,50.108995 9.5255959,44.931512 L 15.75194,38.675523 15.136131,37.431512 c -0.338695,-0.684207 -0.847441,-1.917176 -1.130548,-2.739932 -0.283106,-0.822756 -0.653032,-2.172756 -0.822058,-3 -0.169026,-0.827244 -0.371697,-2.303278 -0.45038,-3.280077 -0.108649,-1.348797 -0.107542,-2.188134 0.0046,-3.48938 0.08122,-0.942362 0.261971,-2.30571 0.401679,-3.029663 0.139709,-0.723953 0.476392,-1.994356 0.748185,-2.823119 0.271793,-0.828763 0.827955,-2.197982 1.235914,-3.042711 0.407959,-0.844728 1.059652,-2.025978 1.448205,-2.625 0.388554,-0.599021 1.117054,-1.596662 1.61889,-2.216978 C 18.692456,10.564335 19.606865,9.571123 20.22264,8.9775138 20.838416,8.3839047 21.904892,7.479479 22.592587,6.9676788 23.280283,6.4558786 24.35126,5.7462456 24.972536,5.3907164 25.593812,5.0351872 26.515088,4.554414 27.019815,4.3223313 27.524542,4.0902487 28.44375,3.7221429 29.0625,3.5043184 29.68125,3.2864939 30.721875,2.9743474 31.375,2.8106596 32.028125,2.6469717 33.160344,2.4257351 33.891042,2.3190227 34.676706,2.2042829 36.074806,2.125 37.3125,2.125 c 1.24728,0 2.629709,0.078909 3.421458,0.1952966 0.730698,0.1074131 1.870935,0.3318617 2.53386,0.4987746 0.662926,0.1669129 1.703551,0.4791349 2.3125,0.6938267 0.60895,0.2146918 1.613432,0.6273163 2.232182,0.9169433 0.61875,0.2896271 1.575,0.7984395 2.125,1.1306943 0.55,0.3322548 1.50625,0.9838586 2.125,1.4480083 0.61875,0.4641498 1.561671,1.2481037 2.095379,1.7421198 0.533709,0.4940162 1.416395,1.4325634 1.961526,2.0856614 0.54513,0.653097 1.299518,1.65088 1.676418,2.217294 0.3769,0.566415 0.966958,1.559503 1.311241,2.206863 0.344282,0.64736 0.804288,1.627018 1.022234,2.177018 0.217946,0.55 0.557401,1.52118 0.754345,2.158178 0.196943,0.636997 0.475485,1.761997 0.618982,2.5 0.143497,0.738002 0.30155,2.073072 0.351229,2.966822 0.04968,0.89375 0.05106,2.35625 0.0031,3.25 -0.04799,0.89375 -0.232703,2.342522 -0.410464,3.219493 -0.17776,0.876971 -0.523615,2.198846 -0.768566,2.9375 -0.244951,0.738654 -0.803965,2.082365 -1.242254,2.986026 -0.438289,0.90366 -1.172635,2.19741 -1.63188,2.875 -0.459245,0.677589 -1.189207,1.653856 -1.622139,2.169481 -0.432931,0.515625 -1.19934,1.337282 -1.703131,1.825903 -0.503791,0.488622 -1.281609,1.187498 -1.728484,1.553057 -0.446875,0.36556 -1.31875,0.998292 -1.9375,1.406072 -0.61875,0.407781 -1.784643,1.072752 -2.590873,1.477715 -0.80623,0.404962 -2.21248,0.985299 -3.125,1.289636 -0.91252,0.304338 -2.254531,0.667836 -2.982246,0.807773 -0.727716,0.139938 -2.094142,0.320881 -3.036504,0.402096 -1.301246,0.112145 -2.140583,0.113252 -3.48938,0.0046 -0.976799,-0.07868 -2.452833,-0.281354 -3.280077,-0.45038 -0.827244,-0.169026 -2.177244,-0.539238 -3,-0.822693 -0.822756,-0.283455 -2.058363,-0.79004 -2.745793,-1.125744 l -1.249874,-0.610371 -6.187626,6.16647 c -3.827241,3.814154 -6.414368,6.296913 -6.782015,6.508418 -0.326914,0.188072 -0.888737,0.453792 -1.248496,0.59049 -0.359759,0.136697 -1.020409,0.286378 -1.4681115,0.332624 C 9.178802,61.901915 8.446875,61.902346 8,61.856626 Z m 2.941666,-2.284381 c 0.6418,-0.308575 1.578399,-1.188041 6.714584,-6.304992 3.282812,-3.270519 5.966751,-5.976403 5.964307,-6.013076 -0.0024,-0.03667 -0.438381,-0.376028 -0.96875,-0.754123 -0.530369,-0.378095 -1.751831,-1.47497 -2.714361,-2.4375 -0.96253,-0.96253 -2.059405,-2.183992 -2.4375,-2.714361 -0.378095,-0.530369 -0.716916,-0.966306 -0.752935,-0.96875 -0.03602,-0.0024 -2.742327,2.681495 -6.014019,5.964307 -5.1071882,5.124549 -5.998703,6.073398 -6.3032744,6.708645 -0.2826092,0.589439 -0.3652929,0.960503 -0.4066147,1.824784 -0.036048,0.753968 0.00829,1.29184 0.1453649,1.763352 0.1084787,0.373154 0.4114932,0.985146 0.6733655,1.359983 0.2618724,0.374837 0.782522,0.895575 1.1569993,1.157196 0.3744773,0.261621 0.9357477,0.55735 1.2472676,0.657176 0.3719763,0.119198 0.9754535,0.170251 1.7580661,0.148727 1.0148497,-0.02791 1.3023317,-0.08598 1.9374997,-0.391368 z M 39.25,49.367002 c 0.790625,-0.07268 2,-0.247229 2.6875,-0.38789 0.6875,-0.14066 1.81286,-0.439795 2.5008,-0.664745 0.68794,-0.22495 1.811588,-0.671057 2.496996,-0.99135 0.685408,-0.320293 1.669423,-0.843631 2.1867,-1.162973 0.517277,-0.319342 1.359503,-0.893142 1.871612,-1.275111 0.512109,-0.38197 1.428634,-1.167951 2.036722,-1.746625 0.608087,-0.578674 1.450158,-1.479337 1.871268,-2.001472 0.42111,-0.522135 1.099418,-1.455586 1.507351,-2.074336 0.407933,-0.61875 1.016426,-1.693539 1.352207,-2.38842 0.335781,-0.694882 0.833223,-1.932382 1.105426,-2.75 0.272203,-0.817619 0.622937,-2.077205 0.779408,-2.79908 0.252458,-1.164704 0.284534,-1.657357 0.284851,-4.375 3.33e-4,-2.853489 -0.02261,-3.169636 -0.336114,-4.632296 -0.18506,-0.863387 -0.539431,-2.157137 -0.787492,-2.875 -0.24806,-0.717862 -0.730787,-1.878566 -1.072726,-2.579342 -0.34194,-0.700775 -0.990488,-1.825775 -1.44122,-2.5 C 55.842558,13.489138 55.073541,12.466016 54.584364,11.889758 54.095186,11.3135 53.266441,10.45321 52.742709,9.9780026 52.218977,9.5027952 51.261051,8.7239261 50.613984,8.2471824 49.966918,7.7704387 48.790625,7.0461334 48,6.637615 47.209375,6.2290967 46.128931,5.7231596 45.599013,5.5133103 45.069094,5.303461 44.140969,4.9934058 43.536513,4.8242988 42.932056,4.6551917 41.93125,4.4161321 41.3125,4.2930552 40.436643,4.1188366 39.564642,4.0685284 37.375,4.0658895 c -2.226331,-0.00268 -3.07302,0.045224 -4.0625,0.2298643 -0.6875,0.1282896 -1.87494,0.4214077 -2.638755,0.6513735 -0.763815,0.2299658 -1.896897,0.6385131 -2.51796,0.9078828 -0.621063,0.2693697 -1.657977,0.8009617 -2.304253,1.1813155 -0.646276,0.3803539 -1.622569,1.0241916 -2.16954,1.4307506 -0.54697,0.406559 -1.458648,1.1768431 -2.02595,1.7117428 -0.567302,0.534899 -1.389536,1.40255 -1.827187,1.928112 -0.437651,0.525563 -1.171976,1.530552 -1.631834,2.23331 -0.459857,0.702757 -1.118992,1.877464 -1.464745,2.610459 -0.345753,0.732995 -0.814716,1.901762 -1.042142,2.597259 -0.227425,0.695498 -0.529195,1.827041 -0.6706,2.514541 -0.141405,0.6875 -0.32314,2.002978 -0.403854,2.923285 -0.111989,1.276893 -0.112258,2.076412 -0.0011,3.375 0.08009,0.935943 0.259013,2.264215 0.397609,2.951715 0.138597,0.6875 0.44595,1.840625 0.683007,2.5625 0.237058,0.721875 0.825558,2.1 1.30778,3.0625 0.482221,0.9625 1.255395,2.279872 1.718164,2.927493 0.462769,0.647621 1.39897,1.761907 2.080447,2.476191 0.681477,0.714284 1.693977,1.664629 2.25,2.111877 0.556023,0.447248 1.517201,1.128553 2.135951,1.514011 0.61875,0.385457 1.6875,0.969648 2.375,1.298201 0.6875,0.328553 1.840625,0.794107 2.5625,1.034564 0.721875,0.240458 1.903125,0.554093 2.625,0.696969 0.721875,0.142875 1.81875,0.30694 2.4375,0.36459 0.61875,0.05765 1.4625,0.112227 1.875,0.121283 0.4125,0.0091 1.396875,-0.043 2.1875,-0.115677 z M 34,45.372471 C 33.278125,45.244685 32.154113,44.965362 31.502195,44.751755 30.850278,44.538148 29.783959,44.110926 29.132598,43.802373 28.481238,43.493821 27.383375,42.86759 26.692903,42.410749 25.8521,41.854443 24.939211,41.08184 23.928686,40.071314 22.91816,39.060789 22.145557,38.1479 21.589251,37.307097 21.13241,36.616625 20.506179,35.518762 20.197627,34.867402 c -0.308553,-0.651361 -0.735526,-1.71768 -0.94883,-2.369597 -0.213304,-0.651918 -0.497169,-1.823707 -0.630811,-2.603977 -0.159946,-0.933841 -0.242734,-2.001808 -0.242249,-3.125 4.05e-4,-0.93848 0.08314,-2.240703 0.183854,-2.893828 0.100715,-0.653125 0.32188,-1.698781 0.491479,-2.323681 0.169598,-0.624899 0.532012,-1.654946 0.805364,-2.288992 0.273353,-0.634046 0.807278,-1.66964 1.1865,-2.301319 0.379223,-0.63168 1.052993,-1.60002 1.497267,-2.151868 0.444274,-0.551849 1.210509,-1.383284 1.702745,-1.847634 0.492236,-0.464351 1.29988,-1.143682 1.794764,-1.509626 0.494885,-0.365943 1.40604,-0.95231 2.02479,-1.303036 0.61875,-0.3507266 1.659375,-0.8436098 2.3125,-1.095296 0.653125,-0.2516863 1.69375,-0.5860752 2.3125,-0.7430864 0.61875,-0.1570113 1.681036,-0.3552488 2.360635,-0.4405278 0.784285,-0.098415 1.902947,-0.1279469 3.0625,-0.080846 1.09163,0.044341 2.293233,0.1757928 2.985667,0.3266221 0.637341,0.1388287 1.674403,0.4251581 2.304582,0.6362875 0.63018,0.2111295 1.624486,0.6177438 2.20957,0.9035876 0.585084,0.2858437 1.544897,0.838163 2.132918,1.227377 0.58802,0.389213 1.504168,1.081917 2.035884,1.539343 0.531716,0.457426 1.341014,1.266724 1.79844,1.79844 0.457426,0.531716 1.15013,1.447864 1.539343,2.035884 0.389214,0.588021 0.941533,1.547833 1.227377,2.132918 0.285843,0.585083 0.692458,1.57939 0.903587,2.209569 0.211129,0.630179 0.497943,1.667242 0.637363,2.304582 0.161163,0.736741 0.279407,1.864483 0.324646,3.096303 0.05379,1.464621 0.02047,2.281168 -0.136514,3.345593 -0.114219,0.774452 -0.34954,1.899452 -0.522935,2.5 -0.173395,0.600548 -0.509529,1.570032 -0.746964,2.154407 -0.237435,0.584375 -0.692708,1.5125 -1.011717,2.0625 -0.319009,0.55 -0.884609,1.412404 -1.256889,1.916454 -0.37228,0.504049 -1.104287,1.363823 -1.626683,1.910609 -0.522396,0.546786 -1.460786,1.380567 -2.085311,1.852847 -0.624524,0.472279 -1.632344,1.141278 -2.239599,1.486664 -0.607255,0.345385 -1.601218,0.826942 -2.208806,1.070124 -0.607588,0.243182 -1.545118,0.558082 -2.0834,0.699774 -0.538282,0.141692 -1.484944,0.340288 -2.103694,0.441322 -0.662303,0.108147 -1.896162,0.179755 -3,0.174108 -1.233362,-0.0063 -2.324147,-0.0891 -3.1875,-0.241932 z m 6.8125,-1.930481 c 0.48125,-0.108295 1.325,-0.343732 1.875,-0.523194 0.55,-0.179461 1.459544,-0.543425 2.021208,-0.808807 0.561664,-0.265383 1.546039,-0.832441 2.1875,-1.260129 0.685836,-0.457275 1.709021,-1.320309 2.483748,-2.094988 0.744854,-0.744806 1.621839,-1.779163 2.017787,-2.379872 0.385182,-0.584375 0.92429,-1.5125 1.198019,-2.0625 0.273729,-0.55 0.640778,-1.398319 0.815666,-1.885153 0.174887,-0.486834 0.449173,-1.471209 0.609525,-2.1875 0.246363,-1.100509 0.291547,-1.651052 0.291547,-3.552347 0,-1.899429 -0.04529,-2.452287 -0.290681,-3.548301 C 53.861944,22.425133 53.569981,21.403817 53.373012,20.869608 53.176043,20.3354 52.807447,19.48526 52.553911,18.98041 52.300374,18.475559 51.74876,17.55625 51.328101,16.9375 50.907442,16.31875 50.028719,15.277953 49.375383,14.624617 48.722047,13.971281 47.664926,13.080704 47.026224,12.645558 46.387522,12.210411 45.346897,11.609473 44.713724,11.31014 44.080551,11.010806 43.1125,10.618755 42.5625,10.438914 42.0125,10.259073 40.8875,9.9956921 40.0625,9.8536227 38.818117,9.6393331 38.242979,9.6072578 36.6875,9.6654 35.336849,9.7158858 34.445456,9.8214925 33.5,10.043035 c -0.721875,0.169152 -1.678125,0.445866 -2.125,0.614919 -0.446875,0.169054 -1.234375,0.518191 -1.75,0.77586 -0.515625,0.257669 -1.415625,0.785498 -2,1.172953 -0.584375,0.387456 -1.655318,1.295375 -2.379872,2.017599 -0.782003,0.779486 -1.63339,1.787106 -2.094988,2.479426 -0.427688,0.641461 -0.994746,1.625836 -1.260129,2.1875 -0.265382,0.561664 -0.629346,1.471208 -0.808807,2.021208 -0.179462,0.55 -0.414081,1.39375 -0.521376,1.875 -0.107295,0.48125 -0.228522,1.780607 -0.269394,2.887459 -0.05862,1.587376 -0.0292,2.282258 0.139268,3.289763 0.117469,0.702517 0.343201,1.710361 0.501625,2.239655 0.158425,0.529293 0.466449,1.383275 0.684498,1.897737 0.21805,0.514462 0.628026,1.329136 0.911059,1.810386 0.283033,0.48125 0.769671,1.2125 1.081417,1.625 0.311746,0.4125 0.963348,1.164482 1.448005,1.67107 0.484657,0.506589 1.303069,1.242276 1.818694,1.63486 0.515625,0.392584 1.33835,0.950689 1.828277,1.240233 0.489928,0.289544 1.333678,0.710866 1.875,0.93627 0.541323,0.225404 1.406098,0.531723 1.921723,0.680709 0.515625,0.148985 1.3875,0.354601 1.9375,0.456924 0.734601,0.136666 1.597147,0.172145 3.25,0.133682 1.407204,-0.03275 2.577754,-0.126113 3.125,-0.249258 z M 36,36.371034 C 35.553125,36.318174 34.821875,36.18236 34.375,36.069227 33.928125,35.956093 33,35.585907 32.3125,35.246591 31.55525,34.872849 30.686445,34.313151 30.10853,33.826757 29.307267,33.152384 29.037141,32.999863 28.42103,32.873944 28.017589,32.791489 27.153125,32.554304 26.5,32.346865 25.846875,32.139427 24.869901,31.747543 24.328946,31.476014 23.787991,31.204484 23.062562,30.719113 22.716882,30.397412 22.371201,30.07571 21.985348,29.5875 21.859431,29.3125 c -0.125917,-0.275 -0.230176,-0.728018 -0.231686,-1.006707 -0.0016,-0.301296 0.130447,-0.773989 0.325813,-1.166036 0.208712,-0.418831 0.55996,-0.842242 0.962951,-1.160789 0.348917,-0.275803 1.013987,-0.692619 1.477934,-0.926259 0.463947,-0.23364 1.243456,-0.55947 1.732243,-0.724067 l 0.888704,-0.299268 0.60786,-1.233437 c 0.334322,-0.67839 0.915055,-1.603829 1.290516,-2.056531 0.375461,-0.452702 1.068774,-1.115931 1.540695,-1.473843 0.471922,-0.357912 1.308039,-0.870561 1.858039,-1.139221 0.55,-0.26866 1.45,-0.617896 2,-0.77608 0.857046,-0.246493 1.285908,-0.287607 3,-0.287607 1.716597,0 2.140966,0.0408 2.99481,0.287939 0.547145,0.158367 1.447862,0.509279 2.001593,0.779805 0.55373,0.270526 1.394731,0.801012 1.86889,1.178858 0.474159,0.377846 1.161636,1.039399 1.527726,1.470118 0.36609,0.430719 0.898367,1.26125 1.182837,1.845625 0.284471,0.584375 0.552527,1.135649 0.595682,1.225054 0.04315,0.0894 0.537347,0.32268 1.098207,0.518389 0.560859,0.195708 1.41396,0.562988 1.895779,0.816177 0.481819,0.253188 1.136792,0.717416 1.455494,1.031617 0.318703,0.314201 0.661858,0.730615 0.762567,0.925364 0.100709,0.19475 0.216465,0.597463 0.257236,0.894918 0.05564,0.405926 0.0041,0.703586 -0.206572,1.193333 -0.172187,0.40026 -0.512307,0.86074 -0.879815,1.191162 -0.329513,0.29626 -0.99322,0.745752 -1.474905,0.99887 -0.481684,0.253118 -1.456006,0.649638 -2.165159,0.881157 -0.709154,0.231518 -1.62687,0.489244 -2.03937,0.572724 -0.596342,0.120685 -0.890853,0.27241 -1.4375,0.740567 -0.378125,0.323832 -0.940625,0.760517 -1.25,0.970411 -0.309375,0.209894 -0.84375,0.52326 -1.1875,0.696369 -0.34375,0.173108 -1.078437,0.457651 -1.632637,0.632318 -0.5542,0.174666 -1.550421,0.378099 -2.213823,0.452072 -0.663403,0.07397 -1.306841,0.127105 -1.429863,0.11807 C 36.913155,36.474536 36.446875,36.423894 36,36.371034 Z m 3.4375,-2.070543 c 0.48125,-0.101143 1.090776,-0.280442 1.354502,-0.398443 0.465628,-0.20834 0.365601,-0.214548 -3.456813,-0.214548 -2.164974,0 -3.915699,0.03336 -3.8905,0.07413 0.0252,0.04077 0.475596,0.20172 1.000885,0.35766 0.525288,0.155941 1.357112,0.323088 1.848498,0.371438 0.491385,0.04835 1.202803,0.0667 1.580928,0.04078 0.378125,-0.02592 1.08125,-0.129879 1.5625,-0.231021 z m 1.5,-2.556353 c 0.825,-0.07055 2.226303,-0.244024 3.114006,-0.385485 0.887704,-0.141462 2.209579,-0.423164 2.9375,-0.626005 0.727922,-0.202841 1.786452,-0.596671 2.35229,-0.875178 0.572055,-0.281567 1.196368,-0.697231 1.40625,-0.936272 0.2076,-0.236443 0.377454,-0.512153 0.377454,-0.612687 0,-0.100535 -0.20428,-0.408904 -0.453955,-0.685265 -0.271327,-0.300326 -0.811925,-0.671243 -1.34375,-0.921979 -0.489387,-0.230728 -1.021116,-0.460077 -1.181619,-0.509666 -0.208714,-0.06448 -0.493511,0.01652 -1,0.284407 -0.389497,0.206012 -1.093317,0.492417 -1.564046,0.636456 -0.470728,0.144039 -1.483228,0.370669 -2.25,0.503622 -0.766771,0.132954 -2.23788,0.309897 -3.26913,0.393208 -1.119787,0.09046 -2.705734,0.120988 -3.9375,0.07578 -1.134375,-0.04163 -2.765625,-0.167726 -3.625,-0.280215 -0.859375,-0.112489 -2.096875,-0.339039 -2.75,-0.503443 -0.653125,-0.164405 -1.60187,-0.50267 -2.108323,-0.7517 l -0.920823,-0.452782 -0.847795,0.332621 c -0.466288,0.182941 -1.14797,0.542332 -1.51485,0.798645 -0.366881,0.256314 -0.719391,0.614839 -0.783356,0.796723 -0.08767,0.249289 -0.06393,0.410623 0.09643,0.655366 0.117002,0.178567 0.438508,0.488221 0.714459,0.688118 0.275951,0.199898 0.934454,0.543595 1.46334,0.76377 0.528887,0.220176 1.590801,0.559224 2.359811,0.75344 0.769009,0.194216 2.006916,0.441767 2.750903,0.550114 0.743986,0.108347 1.887078,0.24377 2.540203,0.300939 0.653125,0.05717 2.25625,0.1111 3.5625,0.119845 1.30625,0.0087 3.05,-0.04183 3.875,-0.112382 z m 1.013158,-5.800595 c 0.694737,-0.100277 1.673655,-0.275688 2.175374,-0.389802 0.501719,-0.114113 1.099822,-0.285866 1.329118,-0.381672 L 45.872053,24.997877 45.55624,24.155188 C 45.382543,23.69171 45.052765,23.03125 44.8234,22.6875 c -0.229365,-0.34375 -0.686217,-0.895681 -1.015227,-1.226514 -0.329009,-0.330833 -0.846556,-0.772388 -1.150104,-0.981235 -0.303548,-0.208847 -0.95548,-0.564623 -1.448737,-0.790615 -0.493258,-0.225991 -1.301686,-0.501623 -1.796508,-0.612515 -0.496014,-0.111159 -1.449447,-0.201228 -2.125,-0.200745 -0.797798,5.7e-4 -1.596039,0.08959 -2.287824,0.255129 -0.584375,0.139839 -1.457559,0.449221 -1.94041,0.687515 -0.48285,0.238294 -1.215749,0.70662 -1.628664,1.040725 -0.412915,0.334105 -0.992971,0.928277 -1.289013,1.320381 -0.296042,0.392105 -0.699152,1.060533 -0.8958,1.485396 -0.196648,0.424863 -0.392983,0.919853 -0.4363,1.099978 -0.07635,0.31748 -0.04883,0.335528 0.899464,0.589879 0.538023,0.144308 1.49938,0.351634 2.136351,0.460726 0.63697,0.109092 1.70572,0.247844 2.375,0.308339 0.669279,0.06049 2.398122,0.08568 3.841872,0.05596 1.44375,-0.02972 3.193421,-0.13608 3.888158,-0.236358 z"
         id="path8" />
    </g>
  </g>
</svg>
