<svg xmlns="http://www.w3.org/2000/svg" version="1.1" viewBox="0 0 64 64"><path fill="#f3f3f3" d="M54.125 44.828c0-.026.098-.125.219-.219.198-.155.202-.151.047.047-.094.12-.193.219-.219.219a.047.047 0 0 1-.047-.047zm-3.875-4.125c0-.026.098-.125.219-.219.198-.155.202-.151.047.047-.094.12-.193.219-.219.219a.047.047 0 0 1-.047-.047zm.75-.75c0-.026.098-.125.219-.219.198-.155.202-.151.047.047-.094.12-.193.219-.219.219a.047.047 0 0 1-.047-.047zm-2.25-.75c0-.026.098-.125.219-.219.198-.155.202-.151.047.047-.094.12-.193.219-.219.219a.047.047 0 0 1-.047-.047zM37.227 36.54c.09-.036.198-.032.24.01.04.041-.033.07-.165.065-.146-.006-.175-.035-.075-.075zM23.375 13.578c0-.026.098-.125.219-.219.198-.155.202-.151.047.047-.094.12-.193.219-.219.219a.047.047 0 0 1-.047-.047zm.5-.5c0-.026.098-.125.219-.219.198-.155.202-.151.047.047-.094.12-.193.219-.219.219a.047.047 0 0 1-.047-.047zM20.937 11c.125-.138.255-.25.29-.25.034 0-.04.113-.164.25-.125.138-.255.25-.29.25-.034 0 .04-.113.164-.25zm.438-.422c0-.026.098-.125.219-.219.198-.155.202-.151.047.047-.094.12-.193.219-.219.219a.047.047 0 0 1-.047-.047zm-2.125-.875c0-.026.098-.125.219-.219.198-.155.202-.151.047.047-.094.12-.193.219-.219.219a.047.047 0 0 1-.047-.047zm.75-.75c0-.026.098-.125.219-.219.198-.155.202-.151.047.047-.094.12-.193.219-.219.219A.047.047 0 0 1 20 8.953z" transform="translate(-.248 -.083)"/><path fill="#e7e7e7" d="M20.36 44.781c-.156-.198-.152-.202.046-.047.12.094.219.193.219.219a.047.047 0 0 1-.047.047c-.026 0-.125-.098-.219-.219zm34.39-.593c.161-.172.322-.313.356-.313.034 0-.07.14-.231.313-.161.171-.322.312-.356.312-.034 0 .07-.14.231-.313zm-35.64-.657c-.156-.198-.152-.202.046-.047.12.094.219.193.219.219a.047.047 0 0 1-.047.047c-.026 0-.125-.098-.219-.219zm5.124-2.875c-.155-.198-.151-.202.047-.047.12.094.219.193.219.219a.047.047 0 0 1-.047.047c-.026 0-.125-.098-.219-.219zm26.391-.328c0-.026.098-.125.219-.219.198-.155.202-.151.047.047-.094.12-.193.219-.219.219a.047.047 0 0 1-.047-.047zM52 30.453c0-.026.098-.125.219-.219.198-.155.202-.151.047.047-.094.12-.193.219-.219.219a.047.047 0 0 1-.047-.047zm7.885-4.276c.006-.146.035-.175.075-.075.036.09.032.198-.01.24-.041.04-.07-.033-.065-.165zm-47.375-.125c.006-.146.035-.175.075-.075.036.09.032.198-.01.24-.041.04-.07-.033-.065-.165zm12.115-10.724c0-.026.098-.125.219-.219.198-.155.202-.151.047.047-.094.12-.193.219-.219.219a.047.047 0 0 1-.047-.047zm24.676-.61-.239-.28.282.238c.154.13.281.257.281.28 0 .025-.02.044-.043.044-.024 0-.15-.127-.281-.281zm-23.676-.39c0-.026.098-.125.219-.219.198-.155.202-.151.047.047-.094.12-.193.219-.219.219a.047.047 0 0 1-.047-.047zm27.616-3.672-.303-.344.343.304c.19.166.344.32.344.343a.04.04 0 0 1-.04.041c-.023 0-.178-.155-.344-.344zm-31.491-.453c0-.026.098-.125.219-.219.198-.155.202-.151.047.047-.094.12-.193.219-.219.219a.047.047 0 0 1-.047-.047zm-2.125-.875c0-.026.098-.125.219-.219.198-.155.202-.151.047.047-.094.12-.193.219-.219.219a.047.047 0 0 1-.047-.047z" transform="translate(-.248 -.083)"/><path fill="#d7d7d7" d="M17.75 52.938c3.128-3.129 5.715-5.688 5.749-5.688.034 0-2.496 2.56-5.624 5.688-3.128 3.128-5.715 5.687-5.749 5.687-.034 0 2.496-2.56 5.624-5.688zM11 46.188c3.128-3.129 5.715-5.688 5.749-5.688.034 0-2.496 2.56-5.624 5.688-3.128 3.128-5.715 5.687-5.749 5.687-.034 0 2.496-2.56 5.624-5.688zm25.602 5.227c.09-.036.198-.032.24.01.04.041-.033.07-.165.065-.146-.006-.175-.035-.075-.075zm.557-7.752a.715.715 0 0 1 .375.005c.084.034-.015.06-.221.058-.207-.003-.276-.031-.154-.063zM12.519 27.25c0-.172.03-.242.064-.156a.482.482 0 0 1 0 .312c-.035.086-.063.016-.063-.156zm7.755-.563c.003-.206.03-.275.063-.153.031.121.03.29-.005.375-.034.084-.06-.015-.058-.221zM30.812 21.5c.125-.138.255-.25.29-.25.034 0-.04.113-.164.25-.125.138-.255.25-.29.25-.034 0 .04-.113.164-.25zm22.922-10.344c-.155-.198-.151-.202.047-.047.12.094.219.193.219.219a.047.047 0 0 1-.047.047c-.026 0-.125-.098-.219-.219zM36.977 4.04c.09-.036.198-.032.24.01.04.041-.033.07-.165.065-.146-.006-.175-.035-.075-.075zm.5 0c.09-.036.198-.032.24.01.04.041-.033.07-.165.065-.146-.006-.175-.035-.075-.075z" transform="translate(-.248 -.083)"/><path fill="#c7c7c7" d="M37.031 51.414c.12-.032.317-.032.438 0 .12.031.022.057-.219.057-.24 0-.34-.026-.219-.057zm-17.297-7.258c-.155-.198-.151-.202.047-.047.12.094.219.193.219.219a.047.047 0 0 1-.047.047c-.026 0-.125-.098-.219-.219zm16.993-.491c.09-.036.198-.032.24.01.04.041-.033.07-.165.065-.146-.006-.175-.035-.075-.075zm-1-15.5c.09-.036.198-.032.24.01.04.041-.033.07-.165.065-.146-.006-.175-.035-.075-.075zm-15.467-.988c.006-.146.035-.175.075-.075.036.09.032.198-.01.24-.041.04-.07-.033-.065-.165zm-7.74-.427c0-.172.028-.242.063-.156a.482.482 0 0 1 0 .312c-.035.086-.063.016-.063-.156zm24.639-7.837a.715.715 0 0 1 .375.005c.084.034-.015.06-.222.058-.206-.003-.275-.031-.153-.063zM36.602 4.04c.09-.036.198-.032.24.01.04.041-.033.07-.165.065-.146-.006-.175-.035-.075-.075zm1.25 0c.09-.036.198-.032.24.01.04.041-.033.07-.165.065-.146-.006-.175-.035-.075-.075z" transform="translate(-.248 -.083)"/><path fill="#b7b7b7" d="M36.102 28.165c.09-.036.198-.032.24.01.04.041-.033.07-.165.065-.146-.006-.175-.035-.075-.075zm2.25 0c.09-.036.198-.032.24.01.04.041-.033.07-.165.065-.146-.006-.175-.035-.075-.075zm5.257-6.759c-.155-.198-.151-.202.047-.047.12.094.219.193.219.219a.047.047 0 0 1-.047.047c-.026 0-.125-.098-.219-.219zM36.227 4.04c.09-.036.198-.032.24.01.04.041-.033.07-.165.065-.146-.006-.175-.035-.075-.075z" transform="translate(-.248 -.083)"/><path fill="#a7a7a7" d="M45 33.453c0-.026.098-.125.219-.219.198-.155.202-.151.047.047-.094.12-.193.219-.219.219a.047.047 0 0 1-.047-.047zm-8.523-5.288c.09-.036.198-.032.24.01.04.041-.033.07-.165.065-.146-.006-.175-.035-.075-.075zm1.367.002a.482.482 0 0 1 .312 0c.086.035.016.063-.156.063s-.242-.028-.156-.063zm16.416-1.49c.006-.146.035-.175.075-.075.036.09.032.198-.01.24-.041.04-.07-.033-.065-.165zm-9.15-6.646c-.156-.198-.152-.202.046-.047.12.094.219.193.219.219a.047.047 0 0 1-.047.047c-.026 0-.125-.098-.219-.219z" transform="translate(-.248 -.083)"/><path fill="#969696" d="M36.595 31.787c.156-.03.38-.03.5.002.12.031-.007.056-.282.054-.276 0-.373-.027-.218-.056zm1 0c.156-.03.38-.03.5.002.12.031-.007.056-.282.054-.276 0-.373-.027-.218-.056zm-.751-3.62a.482.482 0 0 1 .312 0c.086.035.016.063-.156.063s-.242-.028-.156-.063zm.633-.002c.09-.036.198-.032.24.01.04.041-.033.07-.165.065-.146-.006-.175-.035-.075-.075zm16.783-1.113c.006-.146.035-.175.075-.075.036.09.032.198-.01.24-.041.04-.07-.033-.065-.165zm0-.75c.006-.146.035-.175.075-.075.036.09.032.198-.01.24-.041.04-.07-.033-.065-.165zM36.977 9.665c.09-.036.198-.032.24.01.04.041-.033.07-.165.065-.146-.006-.175-.035-.075-.075zm.5 0c.09-.036.198-.032.24.01.04.041-.033.07-.165.065-.146-.006-.175-.035-.075-.075z" transform="translate(-.248 -.083)"/><path fill="#878787" d="M36.602 9.665c.09-.036.198-.032.24.01.04.041-.033.07-.165.065-.146-.006-.175-.035-.075-.075zm1.25 0c.09-.036.198-.032.24.01.04.041-.033.07-.165.065-.146-.006-.175-.035-.075-.075z" transform="translate(-.248 -.083)"/><path fill="#777" d="M19.375 54.188c3.196-3.197 5.84-5.813 5.874-5.813.034 0-2.553 2.616-5.749 5.813C16.304 57.383 13.66 60 13.626 60c-.034 0 2.553-2.616 5.749-5.813zm9.984-20.907c-.155-.198-.151-.202.047-.047.12.094.219.193.219.219a.047.047 0 0 1-.047.047c-.026 0-.125-.098-.219-.219zm26.9-7.229c.007-.146.036-.175.076-.075.036.09.032.198-.01.24-.041.04-.07-.033-.065-.165zM36.603 7.665c.09-.036.198-.032.24.01.04.041-.033.07-.165.065-.146-.006-.175-.035-.075-.075zm1.25 0c.09-.036.198-.032.24.01.04.041-.033.07-.165.065-.146-.006-.175-.035-.075-.075z" transform="translate(-.248 -.083)"/><path fill="#696969" d="M9.75 44.563c3.196-3.197 5.84-5.813 5.874-5.813.034 0-2.553 2.616-5.749 5.813-3.196 3.196-5.84 5.812-5.874 5.812-.034 0 2.553-2.616 5.749-5.813zM35.602 31.79c.09-.036.198-.032.24.01.04.041-.033.07-.165.065-.146-.006-.175-.035-.075-.075zm20.658-4.738c.006-.146.035-.175.075-.075.036.09.032.198-.01.24-.041.04-.07-.033-.065-.165zm-19.165-.89c.156-.03.38-.03.5.002.12.031-.007.056-.282.054-.276 0-.373-.027-.218-.056zm-.118-18.497c.09-.036.198-.032.24.01.04.041-.033.07-.165.065-.146-.006-.175-.035-.075-.075zm.5 0c.09-.036.198-.032.24.01.04.041-.033.07-.165.065-.146-.006-.175-.035-.075-.075z" transform="translate(-.248 -.083)"/><path fill="#575757" d="M53.125 42.953c0-.026.098-.125.219-.219.198-.155.202-.151.047.047-.094.12-.193.219-.219.219a.047.047 0 0 1-.047-.047zm-16.719-9.164c.12-.032.317-.032.438 0 .12.031.022.057-.219.057-.24 0-.34-.026-.219-.057zm1.375 0c.12-.032.317-.032.438 0 .12.031.022.057-.219.057-.24 0-.34-.026-.219-.057zm18.479-7.112c.006-.146.035-.175.075-.075.036.09.032.198-.01.24-.041.04-.07-.033-.065-.165zm-19.791-.51a.482.482 0 0 1 .312 0c.086.035.016.063-.156.063s-.242-.028-.156-.063zm1.375 0a.482.482 0 0 1 .312 0c.086.035.016.063-.156.063s-.242-.028-.156-.063zM50.676 13.22l-.239-.281.282.238c.154.13.281.257.281.28 0 .025-.02.044-.043.044-.024 0-.15-.127-.281-.281z" transform="translate(-.248 -.083)"/><path fill="#474747" d="M36.477 45.665c.09-.036.198-.032.24.01.04.041-.033.07-.165.065-.146-.006-.175-.035-.075-.075zm1.5 0c.09-.036.198-.032.24.01.04.041-.033.07-.165.065-.146-.006-.175-.035-.075-.075zm-.818-11.877a.715.715 0 0 1 .375.005c.084.034-.015.06-.222.058-.206-.003-.275-.031-.153-.063zm-18.9-6.36c.007-.147.036-.176.076-.076.036.09.032.198-.01.24-.041.04-.07-.033-.065-.165zm17.843-1.263c.09-.036.198-.032.24.01.04.041-.033.07-.165.065-.146-.006-.175-.035-.075-.075zm2.25 0c.09-.036.198-.032.24.01.04.041-.033.07-.165.065-.146-.006-.175-.035-.075-.075zm-20.092-.238c.006-.146.035-.175.075-.075.036.09.032.198-.01.24-.041.04-.07-.033-.065-.165zm6.74-11.1c0-.025.098-.124.219-.218.198-.155.202-.151.047.047-.094.12-.193.219-.219.219a.047.047 0 0 1-.047-.047zM36.227 2.04c.09-.036.198-.032.24.01.04.041-.033.07-.165.065-.146-.006-.175-.035-.075-.075z" transform="translate(-.248 -.083)"/><path fill="#373737" d="M37.159 49.413a.715.715 0 0 1 .375.005c.084.034-.015.06-.222.058-.206-.003-.275-.031-.153-.063zm-.307-3.748c.09-.036.198-.032.24.01.04.041-.033.07-.165.065-.146-.006-.175-.035-.075-.075zm.75 0c.09-.036.198-.032.24.01.04.041-.033.07-.165.065-.146-.006-.175-.035-.075-.075zm24.283-17.863c.006-.146.035-.175.075-.075.036.09.032.198-.01.24-.041.04-.07-.033-.065-.165zm-43.625-.75c.006-.146.035-.175.075-.075.036.09.032.198-.01.24-.041.04-.07-.033-.065-.165zm-3.75-.375c.006-.146.035-.175.075-.075.036.09.032.198-.01.24-.041.04-.07-.033-.065-.165zm3.75-.375c.006-.146.035-.175.075-.075.036.09.032.198-.01.24-.041.04-.07-.033-.065-.165zm18.899-9.389a.715.715 0 0 1 .375.005c.084.034-.015.06-.222.058-.206-.003-.275-.031-.153-.063zM23.813 13.25c.124-.137.254-.25.288-.25.035 0-.04.113-.163.25-.125.138-.255.25-.29.25-.034 0 .04-.113.164-.25zM36.602 2.04c.09-.036.198-.032.24.01.04.041-.033.07-.165.065-.146-.006-.175-.035-.075-.075zm1.25 0c.09-.036.198-.032.24.01.04.041-.033.07-.165.065-.146-.006-.175-.035-.075-.075z" transform="translate(-.248 -.083)"/><path fill="#272727" d="M36.727 49.415c.09-.036.198-.032.24.01.04.041-.033.07-.165.065-.146-.006-.175-.035-.075-.075zm.5-3.75c.09-.036.198-.032.24.01.04.041-.033.07-.165.065-.146-.006-.175-.035-.075-.075zm-16.868-1.009c-.155-.198-.151-.202.047-.047.12.094.219.193.219.219a.047.047 0 0 1-.047.047c-.026 0-.125-.098-.219-.219zm34.329-.531c.124-.138.254-.25.288-.25.035 0-.04.113-.163.25-.125.138-.255.25-.29.25-.034 0 .04-.113.164-.25zM18.26 26.677c.006-.146.035-.175.075-.075.036.09.032.198-.01.24-.041.04-.07-.033-.065-.165zM49.3 14.594l-.237-.281.28.238c.155.13.282.257.282.28 0 .025-.02.044-.043.044-.024 0-.15-.127-.281-.281zm-28.925-3.141c0-.026.098-.125.219-.219.198-.155.202-.151.047.047-.094.12-.193.219-.219.219a.047.047 0 0 1-.047-.047zm32.93-.86-.367-.405.406.367c.223.202.406.384.406.406a.04.04 0 0 1-.04.039c-.02 0-.203-.183-.405-.406zM36.977 2.04c.09-.036.198-.032.24.01.04.041-.033.07-.165.065-.146-.006-.175-.035-.075-.075zm.5 0c.09-.036.198-.032.24.01.04.041-.033.07-.165.065-.146-.006-.175-.035-.075-.075z" transform="translate(-.248 -.083)"/><path fill="#1a1a1a" d="M13.5 57.336c0-.022.183-.204.406-.406l.406-.367-.367.406c-.202.223-.384.406-.406.406a.04.04 0 0 1-.039-.04zm1.75-1.758c0-.026.098-.125.219-.219.198-.155.202-.151.047.047-.094.12-.193.219-.219.219a.047.047 0 0 1-.047-.047zm.5-.5c0-.026.098-.125.219-.219.198-.155.202-.151.047.047-.094.12-.193.219-.219.219a.047.047 0 0 1-.047-.047zm1.375-1.367c0-.022.183-.204.406-.406l.407-.367-.368.406c-.202.223-.384.406-.406.406a.04.04 0 0 1-.039-.04zM11 46.063c3.128-3.129 5.715-5.688 5.749-5.688.034 0-2.496 2.56-5.624 5.688C7.997 49.19 5.41 51.75 5.376 51.75c-.034 0 2.496-2.56 5.624-5.688zm19.625-24.485c0-.026.098-.125.219-.219.198-.155.202-.151.047.047-.094.12-.193.219-.219.219a.047.047 0 0 1-.047-.047z" transform="translate(-.248 -.083)"/><path fill="#141414" d="M20 50.813c.373-.379.707-.688.741-.688.035 0-.243.31-.616.688-.373.378-.707.687-.741.687-.035 0 .243-.31.616-.688zm1.5-1.5c.233-.241.452-.438.487-.438.034 0-.129.197-.362.438-.233.24-.452.437-.487.437-.034 0 .129-.197.362-.438zm.813-.813c.124-.138.254-.25.288-.25.035 0-.04.113-.163.25-.125.138-.255.25-.29.25-.034 0 .04-.113.164-.25zm.171-18.219c-.155-.198-.151-.202.047-.047.12.094.219.193.219.219a.047.047 0 0 1-.047.047c-.026 0-.125-.098-.219-.219z" transform="translate(-.248 -.083)"/><path fill="#0b0b0b" d="M45.36 20.406c-.156-.198-.152-.202.046-.047.12.094.219.193.219.219a.047.047 0 0 1-.047.047c-.026 0-.125-.098-.219-.219z" transform="translate(-.248 -.083)"/><path fill="#000" d="M8 61.857a7.353 7.353 0 0 1-1.53-.354 8.857 8.857 0 0 1-1.472-.774 7.239 7.239 0 0 1-1.324-1.203c-.313-.384-.699-.955-.857-1.268A9.21 9.21 0 0 1 2.322 57c-.124-.417-.205-1.13-.205-1.813 0-.674.081-1.4.203-1.812a10 10 0 0 1 .592-1.438c.32-.62 1.46-1.828 6.614-7.005l6.226-6.256-.616-1.244a28.095 28.095 0 0 1-1.13-2.74 29.021 29.021 0 0 1-.822-3 33.253 33.253 0 0 1-.45-3.28c-.11-1.35-.108-2.189.004-3.49.081-.942.262-2.306.401-3.03.14-.723.477-1.994.749-2.823.271-.828.828-2.198 1.236-3.042.407-.845 1.06-2.026 1.448-2.625a31.824 31.824 0 0 1 1.619-2.217 29.452 29.452 0 0 1 2.032-2.207 29.574 29.574 0 0 1 2.37-2.01 29.01 29.01 0 0 1 2.38-1.577 31.941 31.941 0 0 1 2.047-1.069 28.99 28.99 0 0 1 2.043-.818c.618-.218 1.659-.53 2.312-.693a30.947 30.947 0 0 1 2.516-.492c.786-.115 2.184-.194 3.422-.194 1.247 0 2.63.079 3.421.195.73.108 1.87.332 2.534.5.663.166 1.703.478 2.312.693.61.215 1.614.627 2.232.917.62.29 1.576.798 2.126 1.13.55.333 1.506.984 2.124 1.449a32.016 32.016 0 0 1 2.096 1.742 27.135 27.135 0 0 1 1.961 2.085c.546.653 1.3 1.651 1.677 2.218.377.566.967 1.56 1.311 2.206.344.648.804 1.627 1.022 2.177.218.55.558 1.522.755 2.159.197.637.475 1.762.619 2.5.143.738.301 2.073.35 2.966.05.894.052 2.357.004 3.25a26.858 26.858 0 0 1-.41 3.22 30.721 30.721 0 0 1-.77 2.937c-.244.74-.803 2.083-1.241 2.987-.439.903-1.173 2.197-1.632 2.875-.46.677-1.19 1.653-1.622 2.169a29.6 29.6 0 0 1-1.703 1.826 33.598 33.598 0 0 1-1.729 1.553c-.447.366-1.319.998-1.937 1.406a31.073 31.073 0 0 1-2.591 1.478c-.807.405-2.213.985-3.125 1.29-.913.304-2.255.667-2.983.807-.727.14-2.094.321-3.036.402-1.301.112-2.14.114-3.49.005a33.252 33.252 0 0 1-3.28-.45 28.938 28.938 0 0 1-3-.823 29.448 29.448 0 0 1-2.745-1.126l-1.25-.61-6.188 6.166c-3.827 3.814-6.414 6.297-6.782 6.509-.327.188-.889.453-1.248.59a7.03 7.03 0 0 1-1.468.333 9.606 9.606 0 0 1-1.627 0zm2.942-2.285c.641-.308 1.578-1.188 6.714-6.305 3.283-3.27 5.967-5.976 5.965-6.013-.003-.036-.439-.376-.97-.754-.53-.378-1.751-1.475-2.714-2.437-.962-.963-2.059-2.184-2.437-2.715-.378-.53-.717-.966-.753-.969-.036-.002-2.742 2.682-6.014 5.965-5.107 5.124-5.999 6.073-6.303 6.708-.283.59-.366.96-.407 1.825-.036.754.008 1.292.145 1.764.109.373.412.985.674 1.36a5.62 5.62 0 0 0 1.157 1.157c.374.261.936.557 1.247.657.372.12.976.17 1.758.149 1.015-.028 1.302-.086 1.938-.392zM39.25 49.367c.79-.073 2-.247 2.688-.388.687-.14 1.812-.44 2.5-.665a26.882 26.882 0 0 0 2.497-.991 26.14 26.14 0 0 0 2.187-1.163 31.28 31.28 0 0 0 1.872-1.275c.512-.382 1.428-1.168 2.036-1.747.608-.578 1.45-1.479 1.872-2.001a32.49 32.49 0 0 0 1.507-2.075 25.053 25.053 0 0 0 1.352-2.388c.336-.695.833-1.932 1.106-2.75.272-.818.623-2.077.779-2.799.252-1.165.285-1.657.285-4.375 0-2.853-.023-3.17-.336-4.632a29.846 29.846 0 0 0-.788-2.875 27.914 27.914 0 0 0-1.072-2.58c-.342-.7-.991-1.825-1.442-2.5a30.108 30.108 0 0 0-1.709-2.273 24.74 24.74 0 0 0-1.841-1.912 32.74 32.74 0 0 0-2.129-1.73c-.647-.478-1.823-1.202-2.614-1.61-.79-.409-1.871-.915-2.401-1.125-.53-.21-1.458-.52-2.062-.689a36.249 36.249 0 0 0-2.224-.53c-.876-.175-1.748-.225-3.938-.228-2.226-.003-3.073.045-4.063.23a30.61 30.61 0 0 0-2.638.651 27.92 27.92 0 0 0-2.518.908c-.621.27-1.658.801-2.304 1.181a29.414 29.414 0 0 0-2.17 1.431 27.61 27.61 0 0 0-2.026 1.712 26.821 26.821 0 0 0-1.827 1.928 29.408 29.408 0 0 0-1.632 2.233 26.149 26.149 0 0 0-1.465 2.61 27.241 27.241 0 0 0-1.042 2.598c-.227.695-.53 1.827-.67 2.515-.142.687-.324 2.002-.404 2.923-.112 1.277-.113 2.076-.001 3.375.08.936.259 2.264.397 2.952.139.687.446 1.84.683 2.562.237.722.826 2.1 1.308 3.063.482.962 1.255 2.28 1.718 2.927.463.648 1.4 1.762 2.08 2.476.682.714 1.695 1.665 2.25 2.112a26.374 26.374 0 0 0 2.137 1.514c.618.386 1.687.97 2.375 1.298.687.329 1.84.794 2.562 1.035.722.24 1.903.554 2.625.697.722.143 1.819.307 2.438.364.618.058 1.462.113 1.875.122.412.009 1.396-.043 2.187-.116zM34 45.372a22.06 22.06 0 0 1-2.498-.62 24.601 24.601 0 0 1-2.37-.95 24.03 24.03 0 0 1-2.44-1.391c-.84-.557-1.753-1.33-2.763-2.34-1.01-1.01-1.783-1.923-2.34-2.764a24.03 24.03 0 0 1-1.391-2.44 24.518 24.518 0 0 1-.95-2.37 22.23 22.23 0 0 1-.63-2.603 18.757 18.757 0 0 1-.242-3.125c0-.939.083-2.24.184-2.894.1-.653.321-1.699.491-2.324.17-.625.532-1.655.805-2.289a23.49 23.49 0 0 1 1.187-2.301c.38-.632 1.053-1.6 1.497-2.152a22.269 22.269 0 0 1 1.703-1.847c.492-.465 1.3-1.144 1.795-1.51a24.203 24.203 0 0 1 2.024-1.303 20.96 20.96 0 0 1 2.313-1.095 24.706 24.706 0 0 1 2.312-.744 23.545 23.545 0 0 1 2.361-.44c.784-.098 1.903-.128 3.063-.08 1.091.043 2.293.175 2.985.326.638.139 1.675.425 2.305.636.63.211 1.624.618 2.21.904.585.285 1.544.838 2.132 1.227a24.59 24.59 0 0 1 2.036 1.54 20.543 20.543 0 0 1 1.799 1.798 24.59 24.59 0 0 1 1.539 2.036c.39.588.942 1.547 1.227 2.133.286.585.693 1.579.904 2.21.211.63.498 1.666.637 2.304.162.736.28 1.864.325 3.096.054 1.465.02 2.281-.137 3.346-.114.774-.349 1.899-.522 2.5-.174.6-.51 1.57-.747 2.154a19.922 19.922 0 0 1-1.012 2.063c-.32.55-.885 1.412-1.257 1.916a24.217 24.217 0 0 1-1.627 1.91 21.02 21.02 0 0 1-2.085 1.853 25.05 25.05 0 0 1-2.24 1.487 21.81 21.81 0 0 1-2.208 1.07c-.608.243-1.546.558-2.084.7-.538.142-1.485.34-2.103.441-.663.108-1.897.18-3 .174-1.234-.006-2.325-.089-3.188-.242zm6.813-1.93a25.209 25.209 0 0 0 1.874-.523c.55-.18 1.46-.544 2.022-.809.561-.265 1.546-.832 2.187-1.26.686-.457 1.71-1.32 2.484-2.095.745-.745 1.622-1.78 2.018-2.38a23.97 23.97 0 0 0 1.198-2.063c.273-.55.64-1.398.815-1.885.175-.486.45-1.47.61-2.187.246-1.1.291-1.651.291-3.553 0-1.899-.045-2.452-.29-3.548a21.783 21.783 0 0 0-.649-2.27 22.242 22.242 0 0 0-.82-1.889c-.253-.504-.804-1.424-1.225-2.043-.42-.618-1.3-1.659-1.953-2.312-.653-.654-1.71-1.544-2.349-1.98a20.71 20.71 0 0 0-2.312-1.335c-.633-.3-1.602-.691-2.151-.871-.55-.18-1.675-.443-2.5-.585-1.245-.215-1.82-.247-3.376-.189-1.35.05-2.242.156-3.187.378-.722.17-1.678.446-2.125.615a22.96 22.96 0 0 0-1.75.776c-.516.257-1.416.785-2 1.173-.584.387-1.655 1.295-2.38 2.017-.782.78-1.633 1.787-2.095 2.48-.428.641-.995 1.626-1.26 2.187-.265.562-.63 1.471-.809 2.021-.18.55-.414 1.394-.521 1.875-.107.482-.229 1.781-.27 2.888-.058 1.587-.029 2.282.14 3.29.117.702.343 1.71.501 2.24.159.529.467 1.383.685 1.897.218.515.628 1.33.91 1.81.284.482.77 1.213 1.082 1.626.312.412.964 1.164 1.448 1.67a18.912 18.912 0 0 0 1.819 1.635c.516.393 1.338.951 1.828 1.24.49.29 1.334.712 1.875.937a21.84 21.84 0 0 0 1.922.68c.516.15 1.387.355 1.938.458.734.136 1.597.172 3.25.133 1.407-.033 2.577-.126 3.124-.249zM36 36.371a15.377 15.377 0 0 1-1.625-.302c-.447-.113-1.375-.483-2.063-.822-.757-.374-1.626-.934-2.203-1.42-.802-.675-1.072-.827-1.688-.953a24.038 24.038 0 0 1-1.921-.527c-.653-.208-1.63-.6-2.171-.871-.541-.272-1.266-.757-1.612-1.079-.346-.321-.732-.81-.858-1.084a2.936 2.936 0 0 1-.231-1.007c-.002-.302.13-.774.326-1.166.208-.42.56-.842.963-1.161a10.482 10.482 0 0 1 1.477-.926c.464-.234 1.244-.56 1.733-.724l.888-.3.608-1.233c.335-.678.915-1.604 1.29-2.057a11.235 11.235 0 0 1 1.541-1.473c.472-.358 1.309-.871 1.859-1.14.55-.268 1.45-.618 2-.776.857-.246 1.285-.287 3-.287 1.716 0 2.14.04 2.994.288.547.158 1.448.509 2.002.78.554.27 1.395.8 1.869 1.178.474.378 1.161 1.04 1.528 1.47.366.431.898 1.262 1.182 1.846l.596 1.225c.043.09.537.323 1.098.518.561.196 1.414.563 1.896.817.482.253 1.137.717 1.456 1.031.318.314.661.73.762.926.1.194.217.597.257.895.056.405.004.703-.206 1.193-.172.4-.513.86-.88 1.191-.33.296-.993.746-1.475.999-.482.253-1.456.65-2.165.881-.71.232-1.627.49-2.04.573-.596.12-.89.272-1.437.74-.378.324-.94.76-1.25.97-.31.21-.844.524-1.188.697-.343.173-1.078.458-1.632.632-.554.175-1.55.379-2.214.453-.663.073-1.307.127-1.43.118A39.78 39.78 0 0 1 36 36.37zm3.438-2.07c.48-.102 1.09-.281 1.354-.399.466-.208.366-.215-3.457-.215-2.165 0-3.916.034-3.89.075.025.04.475.201 1 .357.526.156 1.358.323 1.85.372.49.048 1.202.066 1.58.04.378-.025 1.081-.13 1.562-.23zm1.5-2.557c.824-.07 2.226-.244 3.114-.385.887-.142 2.21-.424 2.937-.626.728-.203 1.786-.597 2.352-.876.572-.281 1.197-.697 1.407-.936.207-.236.377-.512.377-.612 0-.101-.204-.41-.454-.686-.271-.3-.812-.671-1.344-.922-.49-.23-1.02-.46-1.181-.51-.209-.064-.494.017-1 .285-.39.206-1.094.492-1.564.636-.471.145-1.484.371-2.25.504a44.55 44.55 0 0 1-3.27.393c-1.12.09-2.705.121-3.937.076-1.134-.042-2.766-.168-3.625-.28a29.473 29.473 0 0 1-2.75-.504c-.653-.164-1.602-.502-2.108-.751l-.921-.453-.848.333a8.802 8.802 0 0 0-1.515.798c-.367.257-.72.615-.783.797-.088.25-.064.41.096.655.117.179.439.489.715.688.276.2.934.544 1.463.764.529.22 1.59.56 2.36.754.769.194 2.007.441 2.75.55a54.31 54.31 0 0 0 2.541.3c.653.058 2.256.112 3.562.12 1.307.01 3.05-.041 3.875-.112zm1.013-5.8c.694-.1 1.673-.276 2.175-.39.502-.114 1.1-.286 1.33-.382l.416-.174-.316-.843a8.692 8.692 0 0 0-.733-1.468 9.951 9.951 0 0 0-1.015-1.226 9.979 9.979 0 0 0-1.15-.981c-.303-.21-.955-.565-1.449-.79a10.99 10.99 0 0 0-1.796-.613c-.496-.112-1.45-.202-2.125-.201-.798 0-1.596.09-2.288.255-.584.14-1.458.45-1.94.688a10.54 10.54 0 0 0-1.63 1.04 9.163 9.163 0 0 0-1.288 1.32c-.296.393-.7 1.061-.896 1.486-.197.425-.393.92-.436 1.1-.077.317-.049.336.9.59.537.144 1.499.352 2.136.46.637.11 1.705.248 2.375.309.669.06 2.398.086 3.841.056 1.444-.03 3.194-.136 3.889-.236z" transform="translate(-.248 -.083)"/></svg>